<svg xmlns="http://www.w3.org/2000/svg" version="1.1" xmlns:xlink="http://www.w3.org/1999/xlink" xmlns:svgjs="http://svgjs.dev/svgjs" width="2000" height="2533" viewBox="0 0 2000 2533"><g transform="matrix(1,0,0,1,0.34286319654449926,1.0255060728743501)"><svg viewBox="0 0 195 247" data-background-color="#ffffff" preserveAspectRatio="xMidYMid meet" height="2533" width="2000" xmlns="http://www.w3.org/2000/svg" xmlns:xlink="http://www.w3.org/1999/xlink"><g id="tight-bounds" transform="matrix(1,0,0,1,-0.03342916166309351,-0.09999999999999432)"><svg viewBox="0 0 195.06685832332622 247.2" height="247.2" width="195.06685832332622"><g><svg viewBox="0 0 488.86271999999997 619.5151007337931" height="247.2" width="195.06685832332622"><g transform="matrix(1,0,0,1,46.67135999999999,513.8157903889655)"><svg viewBox="0 0 395.52 105.69931034482757" height="105.69931034482757" width="395.52"><g id="textblocktransform"><svg viewBox="0 0 395.52 105.69931034482757" height="105.69931034482757" width="395.52" id="textblock"><g><svg viewBox="0 0 395.52 105.69931034482757" height="105.69931034482757" width="395.52"><g transform="matrix(1,0,0,1,0,0)"><svg width="395.52" viewBox="1.4 -14.9 11.6 3.0999999999999996" height="105.69931034482757" data-palette-color="#0476da"><g class="wordmark-text-0" data-fill-palette-color="primary" id="text-0"><path d="M1.7-14.4L4-14.4Q8.4-14.4 12.6-14.9L12.6-14.9 13-14.65 12.7-12.55 1.85-11.8 1.4-12.1 1.7-14.4Z" fill="#0476da" data-fill-palette-color="primary"></path></g></svg></g></svg></g></svg></g></svg></g><g><svg viewBox="0 0 488.86271999999997 488.86271999999997" height="488.86271999999997" width="488.86271999999997"><g><svg xmlns="http://www.w3.org/2000/svg" xmlns:xlink="http://www.w3.org/1999/xlink" version="1.1" x="0" y="0" viewBox="2 2 508 508" enable-background="new 0 0 512 512" xml:space="preserve" height="488.86271999999997" width="488.86271999999997" class="icon-icon-0" data-fill-palette-color="accent" id="icon-0"><g fill="#0476da" data-fill-palette-color="accent"><path d="M442.5 82.1H351.1V16.1C351.1 8.3 344.8 2 337 2H56.2C26.3 2 2 26.3 2 56.2V442.5C2 479.7 32.3 510 69.5 510H442.5C479.7 510 510 479.7 510 442.5V149.6C510 112.4 479.7 82.1 442.5 82.1M56.2 30.2H322.9V82.1H56.2C41.9 82.1 30.2 70.5 30.2 56.2S41.9 30.2 56.2 30.2M481.8 442.5C481.8 464.2 464.2 481.8 442.5 481.8H69.5C47.8 481.8 30.2 464.2 30.2 442.5V103.7C37.9 107.9 46.8 110.3 56.2 110.3H442.5C464.2 110.3 481.8 127.9 481.8 149.6z" fill="#0476da" data-fill-palette-color="accent"></path><path d="M442.6 135.5H336C328.8 135.5 321.9 141.7 321.9 149.6V241.3C321.9 249.1 328.2 255.4 336 255.4H442.6C450.4 255.4 456.7 249.1 456.7 241.3V149.7C456.7 141.8 450.4 135.5 442.6 135.5M428.4 227.2H350V163.8H428.4z" fill="#0476da" data-fill-palette-color="accent"></path><path d="M442.6 294.1H69.6C61.8 294.1 55.5 300.4 55.5 308.2S61.8 322.3 69.6 322.3H442.6C450.4 322.3 456.7 316 456.7 308.2S450.4 294.1 442.6 294.1" fill="#0476da" data-fill-palette-color="accent"></path><path d="M69.6 255.4H256.1C263.9 255.4 270.2 249.1 270.2 241.3S263.9 227.2 256.1 227.2H69.6C61.8 227.2 55.5 233.5 55.5 241.3S61.8 255.4 69.6 255.4" fill="#0476da" data-fill-palette-color="accent"></path><path d="M442.6 361H69.6C61.8 361 55.5 367.3 55.5 375.1S61.8 389.2 69.6 389.2H442.6C450.4 389.2 456.7 382.9 456.7 375.1S450.4 361 442.6 361" fill="#0476da" data-fill-palette-color="accent"></path><path d="M442.6 427.9H69.6C61.8 427.9 55.5 434.2 55.5 442S61.8 456.1 69.6 456.1H442.6C450.4 456.1 456.7 449.8 456.7 442S450.4 427.9 442.6 427.9" fill="#0476da" data-fill-palette-color="accent"></path><polygon points="70,161 96.2,195.4 108.5,195.4 108.5,140.5 96.2,140.5 96.2,175.8 69.2,140.5 57.8,140.5 57.8,195.4 70,195.4  " fill="#0476da" data-fill-palette-color="accent"></polygon><polygon points="162.5,184.6 134.3,184.6 134.3,173.2 158.9,173.2 158.9,162.7 134.3,162.7 134.3,151.4 161.6,151.4 161.6,140.5    122,140.5 122,195.4 162.5,195.4  " fill="#0476da" data-fill-palette-color="accent"></polygon><polygon points="194.7,195.4 206.7,157.2 218.7,195.4 227.8,195.4 247,140.5 233.7,140.5 222.8,172.1 213.1,140.5 200.3,140.5    190.5,172.1 179.7,140.5 166.4,140.5 185.6,195.4  " fill="#0476da" data-fill-palette-color="accent"></polygon><path d="M272.9 185.2C267.9 185.2 262.4 182.6 256.5 177.4L249.2 186.4C256.2 192.8 264 196.1 272.7 196.1 284.6 196.1 292.8 189.2 292.8 179.5 293.2 170 286.7 165 276.3 162.5 268.8 160.5 264.4 159.2 264.2 155.3 264.6 152.2 266.3 150 270.8 150 275.9 150 280.8 151.8 285.6 155.4L291.8 146.4C286.2 142.1 279.6 139.3 271.2 139.2 259 139.9 251.9 144.9 251.5 155.5 251.5 165.5 257.4 170.1 270 172.9 275.4 174.2 280.5 175.7 280.1 179.8 280.3 183.3 276.3 185.4 272.9 185.2" fill="#0476da" data-fill-palette-color="accent"></path></g></svg></g></svg></g><g></g></svg></g><defs></defs></svg><rect width="195.06685832332622" height="247.2" fill="none" stroke="none" visibility="hidden"></rect></g></svg></g></svg>