<svg xmlns="http://www.w3.org/2000/svg" version="1.1" xmlns:xlink="http://www.w3.org/1999/xlink" xmlns:svgjs="http://svgjs.dev/svgjs" width="2000" height="2000" viewBox="0 0 2000 2000"><g transform="matrix(1,0,0,1,0,0)"><svg viewBox="0 0 280 280" data-background-color="#ffffff" preserveAspectRatio="xMidYMid meet" height="2000" width="2000" xmlns="http://www.w3.org/2000/svg" xmlns:xlink="http://www.w3.org/1999/xlink"><g id="tight-bounds" transform="matrix(1,0,0,1,0,0)"><svg viewBox="0 0 280 280" height="280" width="280"><g><svg viewBox="0 0 280 280" height="280" width="280"><g><svg viewBox="0 0 280 280" height="280" width="280"><g id="textblocktransform"><svg viewBox="0 0 280 280" height="280" width="280" id="textblock"><g><svg viewBox="0 0 280 280" height="280" width="280"><g transform="matrix(1,0,0,1,8.006734178511124,40.57432183433485)"><svg viewBox="0 0 263.98653164297775 198.8513563313303" height="198.8513563313303" width="263.98653164297775"><g id="icon-0"><svg xmlns="http://www.w3.org/2000/svg" xmlns:xlink="http://www.w3.org/1999/xlink" version="1.1" x="0" y="0" viewBox="9.014776094654344 19.12812570867522 81.96984678213309 61.744874291324784" enable-background="new 0 0 100 100" xml:space="preserve" height="198.8513563313303" width="263.98653164297775" class="icon-jxe-0" data-fill-palette-color="accent" id="jxe-0"><g fill="#0662b3" data-fill-palette-color="accent"><path fill="#0662b3" d="M86.983 46.846C86.784 46.633 85.371 45.222 79.008 40.657 78.997 40.648 77.888 39.72 74.517 36.293 74.469 36.242 69.639 31.05 64.747 19.446A0.52 0.52 0 0 0 64.119 19.15L12.596 34.592A0.52 0.52 0 0 0 12.282 35.326L13.281 37.284 9.417 38.19A0.517 0.517 0 0 0 9.077 38.94L31.043 80.361C31.058 80.389 31.081 80.407 31.1 80.43 31.121 80.458 31.14 80.488 31.166 80.51 31.19 80.531 31.218 80.542 31.245 80.558 31.276 80.576 31.305 80.597 31.339 80.608 31.366 80.617 31.395 80.617 31.423 80.622 31.46 80.628 31.497 80.636 31.535 80.634 31.567 80.632 31.597 80.619 31.628 80.612 31.659 80.604 31.691 80.604 31.721 80.59L34.376 79.356 35.638 80.708C35.641 80.712 35.646 80.713 35.65 80.716A0.5 0.5 0 0 0 35.793 80.816L35.837 80.836A0.5 0.5 0 0 0 36.017 80.873H36.019L36.021 80.872C36.091 80.872 36.159 80.855 36.224 80.827 36.229 80.825 36.235 80.826 36.24 80.823L88.72 56.11C88.761 56.092 89.725 55.673 90.226 55.341 90.354 55.264 90.665 55.027 90.812 54.48 91.005 54.005 91.822 51.268 86.983 46.846M11.456 38.78C13.246 42.121 14.942 45.497 16.582 48.762 19.292 54.158 21.852 59.254 24.327 63.146L24.389 63.249C24.448 63.347 24.508 63.444 24.577 63.534A519 519 0 0 0 26.988 66.639C31.084 71.885 31.8 72.803 33.704 78.522L31.73 79.44 10.31 39.05zM34.711 78.255C32.731 72.307 31.92 71.265 27.807 65.998 27.109 65.104 26.314 64.086 25.4 62.899 25.355 62.841 25.318 62.777 25.28 62.714L25.203 62.589C22.755 58.741 20.207 53.667 17.51 48.296 15.907 45.104 14.249 41.807 12.501 38.535L13.753 38.241C23.79 59.798 27.25 63.724 27.369 63.852 32.028 69.773 33.29 72.356 33.302 72.382 33.311 72.401 33.322 72.419 33.333 72.437 35.495 75.828 35.909 78.477 35.983 79.555L34.878 78.37A0.5 0.5 0 0 0 34.711 78.255M89.856 54.071A0.5 0.5 0 0 0 89.812 54.188C89.771 54.358 89.707 54.43 89.708 54.437 89.67 54.449 89.699 54.441 89.659 54.468 89.312 54.701 88.564 55.043 88.29 55.162L37.01 79.31C36.9 78.012 36.396 75.317 34.225 71.903 34.066 71.582 32.717 68.968 28.163 63.183 28.128 63.144 24.569 59.053 14.517 37.42L14.51 37.411 14.508 37.403 13.49 35.41 63.971 20.28C68.87 31.751 73.56 36.795 73.767 37.015 77.201 40.506 78.299 41.421 78.372 41.48 85.034 46.261 86.179 47.508 86.222 47.556 86.235 47.571 86.249 47.586 86.265 47.6 90.843 51.774 89.861 54.058 89.856 54.071" data-fill-palette-color="accent"></path><polygon fill="#0662b3" points="31.951,35.551 19.513,39.442 28.886,58.361 41.042,53.892  " data-fill-palette-color="accent"></polygon><path fill="#0662b3" d="M34.936 35.522A0.5 0.5 0 0 0 35.089 35.499L63.634 26.705A0.52 0.52 0 1 0 63.328 25.711L34.783 34.505A0.52 0.52 0 0 0 34.936 35.522" data-fill-palette-color="accent"></path><path fill="#0662b3" d="M37.084 40.423A0.52 0.52 0 0 0 37.734 40.767L66.277 31.973A0.52 0.52 0 1 0 65.971 30.979L37.428 39.773A0.52 0.52 0 0 0 37.084 40.423" data-fill-palette-color="accent"></path><path fill="#0662b3" d="M39.974 45.754A0.52 0.52 0 0 0 40.624 46.098L69.168 37.304A0.52 0.52 0 1 0 68.862 36.31L40.318 45.104A0.52 0.52 0 0 0 39.974 45.754" data-fill-palette-color="accent"></path><path fill="#0662b3" d="M42.38 51.507A0.52 0.52 0 0 0 43.03 51.849L74.069 42.204A0.52 0.52 0 0 0 73.76 41.211L42.721 50.856A0.52 0.52 0 0 0 42.38 51.507" data-fill-palette-color="accent"></path><path fill="#0662b3" d="M78.749 46.296A0.52 0.52 0 0 0 78.095 45.962L31.342 61.097A0.518 0.518 0 1 0 31.662 62.085L78.414 46.95A0.52 0.52 0 0 0 78.749 46.296" data-fill-palette-color="accent"></path><path fill="#0662b3" d="M83.378 49.536L33.878 65.952A0.52 0.52 0 1 0 34.204 66.938L83.704 50.522A0.52 0.52 0 1 0 83.378 49.536" data-fill-palette-color="accent"></path><path fill="#0662b3" d="M58.628 63.949L37.417 70.984A0.52 0.52 0 1 0 37.743 71.97L58.954 64.935A0.52 0.52 0 1 0 58.628 63.949" data-fill-palette-color="accent"></path></g></svg></g></svg></g><g id="text-0"><path d="M135.089 3.643l2.066-0.019c2.633-0.024 5.208-0.197 7.725-0.519v0l0.355 0.222-0.251 1.886-9.745 0.762-0.399-0.264z" fill="#0082f3" data-fill-palette-color="primary"></path><path d="M137.815 275.856l0.92 0.004c1.178 0.005 2.33-0.058 3.459-0.189v0l0.16 0.097-0.132 0.845-4.358 0.282-0.171-0.118z" fill="#0082f3" data-fill-palette-color="primary"></path><path d="M0 140.928c0-2.825 2.29-5.116 5.116-5.115 2.825 0 5.116 2.29 5.115 5.115 0 2.825-2.29 5.116-5.115 5.116-2.825 0-5.116-2.29-5.116-5.116z" fill="#0082f3" data-fill-palette-color="primary"></path><path d="M269.769 140.928c0-2.825 2.29-5.116 5.115-5.115 2.825 0 5.116 2.29 5.116 5.115 0 2.825-2.29 5.116-5.116 5.116-2.825 0-5.116-2.29-5.115-5.116z" fill="#0082f3" data-fill-palette-color="primary"></path></g><g id="text-1"></g></svg></g></svg></g></svg></g><g></g></svg></g><defs></defs></svg><rect width="280" height="280" fill="none" stroke="none" visibility="hidden"></rect></g></svg></g></svg>